<svg width="128" height="128" viewBox="0 0 128 128" fill="none" xmlns="http://www.w3.org/2000/svg">
<g clip-path="url(#clip0_4993_13507)">
<path d="M45.3346 101.334H42.668C21.3346 101.334 10.668 96.0003 10.668 69.3337V42.667C10.668 21.3337 21.3346 10.667 42.668 10.667H85.3346C106.668 10.667 117.335 21.3337 117.335 42.667V69.3337C117.335 90.667 106.668 101.334 85.3346 101.334H82.668C81.0146 101.334 79.4146 102.134 78.4013 103.467L70.4013 114.134C66.8813 118.827 61.1213 118.827 57.6013 114.134L49.6013 103.467C48.748 102.294 46.7746 101.334 45.3346 101.334Z" stroke="#196A82" stroke-width="7.99503" stroke-miterlimit="10" stroke-linecap="round" stroke-linejoin="round"/>
<path d="M85.3132 58.6668H85.3611" stroke="#22B8DE" stroke-width="10.66" stroke-linecap="round" stroke-linejoin="round"/>
<path d="M63.9772 58.6667H64.0251" stroke="#22B8DE" stroke-width="10.66" stroke-linecap="round" stroke-linejoin="round"/>
<path d="M42.6374 58.6667H42.6853" stroke="#22B8DE" stroke-width="10.66" stroke-linecap="round" stroke-linejoin="round"/>
</g>
<defs>
<clipPath id="clip0_4993_13507">
<rect width="128" height="128" fill="white"/>
</clipPath>
</defs>
</svg>
