<svg width="128" height="128" viewBox="0 0 128 128" fill="none" xmlns="http://www.w3.org/2000/svg">
<g clip-path="url(#clip0_4993_13494)">
<g clip-path="url(#clip1_4993_13494)">
<path d="M58.47 10.66H47.81C21.16 10.66 10.5 21.32 10.5 47.97V79.95C10.5 106.6 21.16 117.26 47.81 117.26H79.79C106.44 117.26 117.1 106.6 117.1 79.95V69.29" stroke="#22B8DE" stroke-width="7.99503" stroke-linecap="round" stroke-linejoin="round"/>
<path d="M68.1158 77.2318C68.1158 81.9222 66.3036 86.3994 62.9457 89.8106C60.334 92.4223 56.8162 94.2345 52.6055 94.7675L42.1054 95.8868C36.4023 96.5264 31.4987 91.6761 32.1383 85.8664L33.2576 75.3663C34.2703 66.0388 42.0521 60.0692 50.3669 59.9093C51.2197 59.856 52.0725 59.9093 52.9253 59.9626C56.5497 60.4423 60.0675 62.0946 62.999 65.0261C65.8772 67.9043 67.4762 71.2089 67.9559 74.78C68.0625 75.6328 68.1158 76.4856 68.1158 77.2318Z" stroke="#196A82" stroke-width="7.99503" stroke-linecap="round" stroke-linejoin="round"/>
<path d="M84.3218 63.8537C84.3218 52.714 75.3141 43.653 64.1211 43.653" stroke="#22B8DE" stroke-width="7.99503" stroke-linecap="round" stroke-linejoin="round"/>
<path d="M116.622 18.9748C110.066 35.3379 93.596 57.6173 79.8446 68.6504L71.4232 75.3662C70.3572 76.1657 69.2912 76.8053 68.0653 77.285C68.0653 76.4855 68.012 75.686 67.9054 74.8332C67.4257 71.2621 65.8267 67.9042 62.9485 65.0793C60.017 62.1478 56.4992 60.4955 52.8748 60.0158C52.022 59.9625 51.1692 59.9092 50.3164 59.9625C50.7961 58.63 51.489 57.4041 52.3951 56.3914L59.1109 47.97C70.144 34.2186 92.4767 17.6423 108.787 11.0864C111.292 10.127 113.743 10.8732 115.289 12.4189C116.888 14.0179 117.634 16.4697 116.622 18.9748Z" stroke="#196A82" stroke-width="7.99503" stroke-linecap="round" stroke-linejoin="round"/>
</g>
</g>
<defs>
<clipPath id="clip0_4993_13494">
<rect width="128" height="128" fill="white"/>
</clipPath>
<clipPath id="clip1_4993_13494">
<rect width="127.92" height="127.92" fill="white"/>
</clipPath>
</defs>
</svg>
