<svg width="20" height="20" viewBox="0 0 20 20" xmlns="http://www.w3.org/2000/svg" xmlns:xlink="http://www.w3.org/1999/xlink" fill="none" overflow="hidden"><path d="M13.125 0C12.9864 0 12.8643 0.0913282 12.8252 0.224323L11.2627 5.53681C11.2349 5.63129 11.2533 5.73335 11.3123 5.81221 11.3713 5.89106 11.464 5.93749 11.5625 5.93749L13.6394 5.93749 12.5138 9.59558C12.4695 9.73977 12.5344 9.89507 12.6683 9.9647 12.8021 10.0343 12.9666 9.99842 13.0592 9.87934L17.4342 4.25435C17.5074 4.16014 17.5207 4.03241 17.4682 3.92519 17.4158 3.81798 17.3068 3.74999 17.1875 3.74999L14.8086 3.74999 15.9215 0.41132C15.9532 0.316024 15.9372 0.211268 15.8785 0.129778 15.8198 0.0482878 15.7254 0 15.625 0L13.125 0ZM12.5825 18.7494C12.5913 18.7493 12.5983 18.7492 12.6033 18.7492 13.2543 18.7492 15.2465 18.3921 16.0961 16.3546 16.2178 16.0628 16.3314 15.5477 16.1704 15.3827 16.1111 15.322 13.0083 13.5058 12.9056 13.4563 12.8031 13.4068 12.7023 13.3821 12.6033 13.3821 12.4616 13.3821 12.2846 13.483 12.0723 13.6845 11.9581 13.7931 11.7125 14.1076 11.4792 14.4064 11.2787 14.6631 11.0873 14.9083 10.9958 15.0016 10.7976 15.2033 10.6348 15.304 10.5073 15.304 10.4436 15.304 10.3641 15.2865 10.2685 15.2511 10.173 15.2158 9.17896 14.7048 7.11546 12.891 5.0523 11.0777 4.78147 9.89358 4.7678 9.56299 4.7678 9.43563 4.86863 9.27259 5.0703 9.07454 5.27213 8.87632 5.49147 8.68877 5.72863 8.51173 5.9658 8.33485 6.18513 8.14013 6.3868 7.92774 6.58863 7.71536 6.68947 7.53831 6.68947 7.39677 6.68947 7.29775 6.66463 7.19672 6.61513 7.0942 6.56563 6.9915 4.68247 3.89188 4.6193 3.8287 4.47697 3.68633 3.9258 3.75284 3.6478 3.90305 1.40414 5.11519 1.21797 6.74661 1.25364 7.39694 1.29031 8.06461 1.71114 11.5787 5.1553 14.8465 9.32268 18.8005 12.255 18.7546 12.5825 18.7494Z" fill="#AB57FF" fill-rule="evenodd" clip-rule="evenodd"/></svg>